<svg xmlns="http://www.w3.org/2000/svg" version="1.1" xmlns:xlink="http://www.w3.org/1999/xlink" xmlns:svgjs="http://svgjs.dev/svgjs" width="2000" height="762" viewBox="0 0 2000 762"><g transform="matrix(1,0,0,1,-1.2121212121212466,0.8525495026686372)"><svg viewBox="0 0 396 151" data-background-color="#001f3f" preserveAspectRatio="xMidYMid meet" height="762" width="2000" xmlns="http://www.w3.org/2000/svg" xmlns:xlink="http://www.w3.org/1999/xlink"><g id="tight-bounds" transform="matrix(1,0,0,1,0.2400000000000091,-0.16894353661805894)"><svg viewBox="0 0 395.52 151.33788707323612" height="151.33788707323612" width="395.52"><g><svg viewBox="0 0 395.52 151.33788707323612" height="151.33788707323612" width="395.52"><g><svg viewBox="0 0 395.52 151.33788707323612" height="151.33788707323612" width="395.52"><g><svg viewBox="0 0 395.52 151.33788707323612" height="151.33788707323612" width="395.52"><g transform="matrix(1,0,0,1,0,80.4915687173497)"><svg viewBox="0 0 395.52 70.84631835588644" height="70.84631835588644" width="395.52"><g id="textblocktransform"><svg viewBox="0 0 395.52 70.84631835588644" height="70.84631835588644" width="395.52" id="textblock"><g><svg viewBox="0 0 395.52 48.37696157913288" height="48.37696157913288" width="395.52"><g transform="matrix(1,0,0,1,0,0)"><svg width="395.52" viewBox="0.35 -33.6 283.66999999999996 34.7" height="48.37696157913288" data-palette-color="url(#2a923c71-2a8d-4f0b-b7ff-076222f846c5)"></svg></g></svg></g><g transform="matrix(1,0,0,1,98.88,55.43632132060627)"><svg viewBox="0 0 197.76 15.409997035280165" height="15.409997035280165" width="197.76"><g transform="matrix(1,0,0,1,0,0)"><svg width="197.76" viewBox="0.17 -38.01 494.03999999999996 38.5" height="15.409997035280165" data-palette-color="url(#a2fc6bbb-5533-4c74-a8ee-1c21526a6d7e)"></svg></g></svg></g></svg></g></svg></g><g transform="matrix(1,0,0,1,167.09318518160504,0)"><svg viewBox="0 0 61.33362963678992 73.4322089758763" height="73.4322089758763" width="61.33362963678992"><g><svg xmlns="http://www.w3.org/2000/svg" xmlns:xlink="http://www.w3.org/1999/xlink" version="1.1" x="0" y="0" viewBox="5.999164783092315 3 79.96483521690767 95.73857808746513" enable-background="new 0 0 100 100" xml:space="preserve" height="73.4322089758763" width="61.33362963678992" class="icon-icon-0" data-fill-palette-color="accent" id="icon-0"></svg></g></svg></g><g></g></svg></g></svg></g></svg></g><defs></defs><mask id="534b12db-1997-482e-ae33-b3f786c238f8"><g id="SvgjsG1005"><svg viewBox="0 0 395.52 151.33788707323612" height="151.33788707323612" width="395.52"><g><svg viewBox="0 0 395.52 151.33788707323612" height="151.33788707323612" width="395.52"><g><svg viewBox="0 0 395.52 151.33788707323612" height="151.33788707323612" width="395.52"><g><svg viewBox="0 0 395.52 151.33788707323612" height="151.33788707323612" width="395.52"><g transform="matrix(1,0,0,1,0,80.4915687173497)"><svg viewBox="0 0 395.52 70.84631835588644" height="70.84631835588644" width="395.52"><g id="SvgjsG1004"><svg viewBox="0 0 395.52 70.84631835588644" height="70.84631835588644" width="395.52" id="SvgjsSvg1003"><g><svg viewBox="0 0 395.52 48.37696157913288" height="48.37696157913288" width="395.52"><g transform="matrix(1,0,0,1,0,0)"><svg width="395.52" viewBox="0.35 -33.6 283.66999999999996 34.7" height="48.37696157913288" data-palette-color="url(#2a923c71-2a8d-4f0b-b7ff-076222f846c5)"><path d="M17.55-31.25Q18.1-31.15 20-27.43 21.9-23.7 24.65-17.8L24.65-17.8 26.25-14.45Q27.3-15.6 28.2-17.13 29.1-18.65 30.45-21.25L30.45-21.25Q32-24.2 32.6-25.05L32.6-25.05Q35-28.7 37.8-32.8L37.8-32.8Q38.15-33.35 39.05-33.55L39.05-33.55Q39.2-33.6 39.55-33.6L39.55-33.6Q40.75-33.6 42.23-32.6 43.7-31.6 44.15-30.55L44.15-30.55Q44.25-30.35 44.25-29.8L44.25-29.8Q44.25-29.3 44.2-29.05L44.2-29.05Q44.1-28.6 43.98-27.93 43.85-27.25 43.75-26.35L43.75-26.35Q42.15-14.15 41.45-8.05L41.45-8.05Q41.25-6.65 41.25-4.9L41.25-4.9 41.15-3.3Q41.1-2.8 41.1-2.15 41.1-1.5 40.95-1.25 40.8-1 40.4-1L40.4-1Q40.1-1 39.5-1.15L39.5-1.15Q37.9-1.5 37.05-2.43 36.2-3.35 36.1-5L36.1-5Q36.05-5.85 36.05-7.65L36.05-7.65Q36.05-9.5 36.15-13.3L36.15-13.3 36.2-16.05 36.3-20Q35.85-19.6 34.02-16.88 32.2-14.15 30.45-11.2 28.7-8.25 28.15-6.65L28.15-6.65Q27.65-5.4 27.18-4.8 26.7-4.2 26.05-4.2L26.05-4.2Q25.45-4.2 24.5-4.75L24.5-4.75Q21.8-6.4 21.2-9.3L21.2-9.3Q20.25-13.75 18.85-18.55L18.85-18.55Q18.6-19.45 17.88-21 17.15-22.55 16.95-22.95L16.95-22.95 16.3-24.25Q9-14.55 6.4-6.45L6.4-6.45Q5.9-4.75 5.45-4.03 5-3.3 4.4-3.3L4.4-3.3Q3.45-3.3 1.7-5L1.7-5Q0.35-6.2 0.35-7.7L0.35-7.7Q0.35-8.5 0.65-9.3L0.65-9.3Q2.75-15.5 6.9-21.05L6.9-21.05 8.45-23.1Q11.6-27.25 13.2-29.6L13.2-29.6Q14.4-31.35 16.4-31.35L16.4-31.35Q16.75-31.35 17.55-31.25L17.55-31.25ZM53.55-21Q54.8-20.65 55.32-20.15 55.85-19.65 55.85-18.8L55.85-18.8Q55.85-18.4 55.7-17.75L55.7-17.75Q55.15-15.5 55.1-13.25L55.1-13.25Q55.05-10.7 55.9-8.55L55.9-8.55Q56.2-7.8 56.47-7.48 56.75-7.15 57.15-7.15L57.15-7.15Q57.65-7.15 58.45-8.05L58.45-8.05Q60.3-10.25 61.2-12.45 62.1-14.65 62.3-17L62.3-17Q62.45-18.55 62.8-18.95L62.8-18.95Q63-19.15 63.45-19.2 63.9-19.25 64.75-19.25L64.75-19.25Q66.1-19.15 66.62-19 67.15-18.85 67.35-18.5 67.55-18.15 67.55-17.35L67.55-17.35 67.5-15Q67.5-14.25 67.45-12.8L67.45-12.8Q67.3-8.3 67.2-6.1L67.2-6.1Q67.15-4.35 66.15-1.7L66.15-1.7Q66.05-1.55 65.6-1.28 65.15-1 64.8-0.95L64.8-0.95Q64.7-0.95 64.37-1.28 64.05-1.6 63.9-1.85L63.9-1.85Q63.55-2.65 63.1-4L63.1-4 62.7-4.95 62.6-5.25 62.45-5.1 61.65-4.6Q61.05-4.1 60.35-3.8L60.35-3.8Q59.2-3.1 57.6-3.1L57.6-3.1Q55.6-3.1 53.8-4.23 52-5.35 50.95-7.3L50.95-7.3Q49.25-10.3 49.25-14.25L49.25-14.25Q49.25-16.25 49.8-19.3L49.8-19.3Q49.9-20.05 50.75-20.6L50.75-20.6Q51.5-21.15 52.5-21.15L52.5-21.15Q53-21.15 53.55-21L53.55-21ZM77.25 1.1Q73.05 1.1 71.9-2.5L71.9-2.5Q72.3-2.5 72.97-2.48 73.65-2.45 74.09-2.35L74.09-2.35Q74.8-2.25 75.09-2.25L75.09-2.25Q77.34-2.25 78.84-4.25L78.84-4.25Q79.9-5.7 79.9-7.2L79.9-7.2Q79.9-8.2 79.4-9.15L79.4-9.15Q78.3-11.1 76.7-13.45L76.7-13.45Q75.65-15 74.8-16.4L74.8-16.4Q73.8-18 73.8-19.95L73.8-19.95Q73.8-21.75 74.82-23.13 75.84-24.5 77.84-24.85L77.84-24.85 79.45-25.15Q82.05-25.65 83.34-25.65L83.34-25.65Q85.5-25.65 87.15-24.65L87.15-24.65Q87.5-24.4 87.87-23.78 88.25-23.15 88.45-22.8L88.45-22.8Q88.09-22.65 87.47-22.33 86.84-22 86.4-21.95L86.4-21.95Q85.7-21.85 84.3-21.85L84.3-21.85Q82.95-21.85 82.25-21.8L82.25-21.8Q80.65-21.65 79.72-20.73 78.8-19.8 78.8-18.5L78.8-18.5Q78.8-17.5 79.4-16.45L79.4-16.45Q80.75-14.2 83.15-11.3L83.15-11.3Q84.95-9.05 84.95-6.65L84.95-6.65Q84.95-5.35 84.34-3.9L84.34-3.9Q82.3 1.1 77.25 1.1L77.25 1.1ZM96.19-23.3Q96.09-23 95.47-22.65 94.84-22.3 94.44-22L94.44-22 93.04-22.75Q90.99-23.85 90.24-24.5L90.24-24.5Q89.84-24.8 89.84-25.25L89.84-25.25Q89.84-25.55 90.07-25.78 90.29-26 90.74-26L90.74-26Q92.69-26 95.49-25L95.49-25Q95.79-24.95 96.04-24.33 96.29-23.7 96.19-23.3L96.19-23.3ZM91.69-14Q91.84-14.65 91.89-14.95 91.94-15.25 91.94-15.6L91.94-15.6Q91.94-16.3 92.37-16.7 92.79-17.1 93.99-17.1L93.99-17.1Q95.39-17.1 96.47-16.23 97.54-15.35 97.79-13.95L97.79-13.95Q97.94-13.25 97.99-12.4 98.04-11.55 98.04-11.3L98.04-11.3 98.74-2.75Q98.89-1.4 98.37-0.68 97.84 0.05 96.39 0.05L96.39 0.05Q95.14 0.05 94.27-0.65 93.39-1.35 93.19-2.45L93.19-2.45 91.89-13.05 91.69-14ZM120.14-5.1Q118.64-3.4 117.09-2.43 115.54-1.45 113.64-1.45L113.64-1.45Q113.24-1.45 112.54-1.55L112.54-1.55 111.54-1.5Q105.24-1.45 102.34-7.5L102.34-7.5Q101.69-8.9 101.69-10.85L101.69-10.85Q101.69-12.55 102.19-14.1 102.69-15.65 103.59-16.65L103.59-16.65 104.54-17.8Q105.24-18.7 105.64-19.05L105.64-19.05Q107.39-20.75 110.29-20.75L110.29-20.75Q111.79-20.75 113.24-20.25 114.69-19.75 115.79-18.9L115.79-18.9Q115.99-18.75 116.19-18.28 116.39-17.8 116.39-17.5L116.39-17.5Q116.39-17.1 115.79-16.63 115.19-16.15 114.69-16.2L114.69-16.2Q111.29-16.6 109.24-14.58 107.19-12.55 107.19-9.05L107.19-9.05Q107.19-6.75 108.17-5.8 109.14-4.85 111.39-4.85L111.39-4.85Q112.79-4.85 114.04-5.43 115.29-6 116.94-7.05L116.94-7.05 117.89-7.65Q118.39-7.9 119.22-7.98 120.04-8.05 120.49-8.1L120.49-8.1Q120.44-7.65 120.47-7.23 120.49-6.8 120.49-6.55L120.49-6.55Q120.49-5.45 120.14-5.1L120.14-5.1ZM152.54-31.25Q153.09-31.15 154.99-27.43 156.89-23.7 159.64-17.8L159.64-17.8 161.24-14.45Q162.29-15.6 163.19-17.13 164.09-18.65 165.44-21.25L165.44-21.25Q166.99-24.2 167.59-25.05L167.59-25.05Q169.99-28.7 172.79-32.8L172.79-32.8Q173.14-33.35 174.04-33.55L174.04-33.55Q174.19-33.6 174.54-33.6L174.54-33.6Q175.74-33.6 177.21-32.6 178.69-31.6 179.14-30.55L179.14-30.55Q179.24-30.35 179.24-29.8L179.24-29.8Q179.24-29.3 179.19-29.05L179.19-29.05Q179.09-28.6 178.96-27.93 178.84-27.25 178.74-26.35L178.74-26.35Q177.14-14.15 176.44-8.05L176.44-8.05Q176.24-6.65 176.24-4.9L176.24-4.9 176.14-3.3Q176.09-2.8 176.09-2.15 176.09-1.5 175.94-1.25 175.79-1 175.39-1L175.39-1Q175.09-1 174.49-1.15L174.49-1.15Q172.89-1.5 172.04-2.43 171.19-3.35 171.09-5L171.09-5Q171.04-5.85 171.04-7.65L171.04-7.65Q171.04-9.5 171.14-13.3L171.14-13.3 171.19-16.05 171.29-20Q170.84-19.6 169.01-16.88 167.19-14.15 165.44-11.2 163.69-8.25 163.14-6.65L163.14-6.65Q162.64-5.4 162.16-4.8 161.69-4.2 161.04-4.2L161.04-4.2Q160.44-4.2 159.49-4.75L159.49-4.75Q156.79-6.4 156.19-9.3L156.19-9.3Q155.24-13.75 153.84-18.55L153.84-18.55Q153.59-19.45 152.86-21 152.14-22.55 151.94-22.95L151.94-22.95 151.29-24.25Q143.99-14.55 141.39-6.45L141.39-6.45Q140.89-4.75 140.44-4.03 139.99-3.3 139.39-3.3L139.39-3.3Q138.44-3.3 136.69-5L136.69-5Q135.34-6.2 135.34-7.7L135.34-7.7Q135.34-8.5 135.64-9.3L135.64-9.3Q137.74-15.5 141.89-21.05L141.89-21.05 143.44-23.1Q146.59-27.25 148.19-29.6L148.19-29.6Q149.39-31.35 151.39-31.35L151.39-31.35Q151.74-31.35 152.54-31.25L152.54-31.25ZM188.93-23.3Q188.83-23 188.21-22.65 187.58-22.3 187.18-22L187.18-22 185.78-22.75Q183.73-23.85 182.98-24.5L182.98-24.5Q182.58-24.8 182.58-25.25L182.58-25.25Q182.58-25.55 182.81-25.78 183.03-26 183.48-26L183.48-26Q185.43-26 188.23-25L188.23-25Q188.53-24.95 188.78-24.33 189.03-23.7 188.93-23.3L188.93-23.3ZM184.43-14Q184.58-14.65 184.63-14.95 184.68-15.25 184.68-15.6L184.68-15.6Q184.68-16.3 185.11-16.7 185.53-17.1 186.73-17.1L186.73-17.1Q188.13-17.1 189.21-16.23 190.28-15.35 190.53-13.95L190.53-13.95Q190.68-13.25 190.73-12.4 190.78-11.55 190.78-11.3L190.78-11.3 191.48-2.75Q191.63-1.4 191.11-0.68 190.58 0.05 189.13 0.05L189.13 0.05Q187.88 0.05 187.01-0.65 186.13-1.35 185.93-2.45L185.93-2.45 184.63-13.05 184.43-14ZM202.33-21.2Q202.48-20.7 202.38-19.65L202.38-19.65 201.78-13.75Q202.03-13.95 202.53-15.18 203.03-16.4 203.48-17.18 203.93-17.95 204.18-18.2L204.18-18.2Q206.53-20.45 209.48-20.9 212.43-21.35 215.98-21.3L215.98-21.3Q216.33-21.3 216.76-21.03 217.18-20.75 217.18-20.58 217.18-20.4 216.88-20.03 216.58-19.65 216.33-19.55L216.33-19.55Q213.33-18.55 211.06-17.25 208.78-15.95 207.13-13.85L207.13-13.85Q203.23-8.9 202.63-3.65L202.63-3.65Q202.48-2.25 201.78-1.78 201.08-1.3 199.83-1.3L199.83-1.3Q198.43-1.3 197.33-2.5 196.23-3.7 196.23-5.15L196.23-5.15Q196.28-10.45 196.28-21.05L196.28-21.05Q196.28-22.5 196.93-23.08 197.58-23.65 199.28-23.65L199.28-23.65Q200.53-23.65 201.41-22.95 202.28-22.25 202.33-21.2L202.33-21.2ZM225.83-21.2Q225.98-20.7 225.88-19.65L225.88-19.65 225.28-13.75Q225.53-13.95 226.03-15.18 226.53-16.4 226.98-17.18 227.43-17.95 227.68-18.2L227.68-18.2Q230.03-20.45 232.98-20.9 235.93-21.35 239.48-21.3L239.48-21.3Q239.83-21.3 240.25-21.03 240.68-20.75 240.68-20.58 240.68-20.4 240.38-20.03 240.08-19.65 239.83-19.55L239.83-19.55Q236.83-18.55 234.55-17.25 232.28-15.95 230.63-13.85L230.63-13.85Q226.73-8.9 226.13-3.65L226.13-3.65Q225.98-2.25 225.28-1.78 224.58-1.3 223.33-1.3L223.33-1.3Q221.93-1.3 220.83-2.5 219.73-3.7 219.73-5.15L219.73-5.15Q219.78-10.45 219.78-21.05L219.78-21.05Q219.78-22.5 220.43-23.08 221.08-23.65 222.78-23.65L222.78-23.65Q224.03-23.65 224.9-22.95 225.78-22.25 225.83-21.2L225.83-21.2ZM252.68-3.35Q251.13-2.4 249.13-2.4L249.13-2.4Q246.93-2.4 244.9-3.53 242.88-4.65 241.68-6.75 240.48-8.85 240.68-11.55L240.68-11.55 240.93-12.75Q241.23-14.55 241.43-15.4L241.43-15.4Q241.88-17.25 243.23-18 244.58-18.75 246.83-19.2L246.83-19.2Q248.28-19.5 249.68-19.5L249.68-19.5Q254.08-19.5 257.08-16.55L257.08-16.55Q258.68-14.95 258.68-12.65L258.68-12.65Q258.68-10.4 257.03-7.8L257.03-7.8Q255.13-4.85 252.68-3.35L252.68-3.35ZM248.48-16.95Q247.68-15 246.78-12.1L246.78-12.1 246.28-10.6 246.63-10.45Q246.63-10.1 246.65-9.38 246.68-8.65 246.83-8.15L246.83-8.15Q247.38-6.6 248.08-6.25L248.08-6.25Q248.38-6.1 248.95-6.4 249.53-6.7 249.98-7.1L249.98-7.1Q250.68-7.7 252.23-9.6L252.23-9.6Q253.38-10.9 253.38-12.7L253.38-12.7Q253.38-14.25 252.5-15.5 251.63-16.75 250.08-17.2L250.08-17.2Q249.93-17.25 249.53-17.25L249.53-17.25Q248.58-17.25 248.48-16.95L248.48-16.95ZM269.17-21.2Q269.32-20.7 269.22-19.65L269.22-19.65 268.62-13.75Q268.87-13.95 269.37-15.18 269.87-16.4 270.32-17.18 270.77-17.95 271.02-18.2L271.02-18.2Q273.37-20.45 276.32-20.9 279.27-21.35 282.82-21.3L282.82-21.3Q283.17-21.3 283.6-21.03 284.02-20.75 284.02-20.58 284.02-20.4 283.72-20.03 283.42-19.65 283.17-19.55L283.17-19.55Q280.17-18.55 277.9-17.25 275.62-15.95 273.97-13.85L273.97-13.85Q270.07-8.9 269.47-3.65L269.47-3.65Q269.32-2.25 268.62-1.78 267.92-1.3 266.67-1.3L266.67-1.3Q265.27-1.3 264.17-2.5 263.07-3.7 263.07-5.15L263.07-5.15Q263.12-10.45 263.12-21.05L263.12-21.05Q263.12-22.5 263.77-23.08 264.42-23.65 266.12-23.65L266.12-23.65Q267.37-23.65 268.25-22.95 269.12-22.25 269.17-21.2L269.17-21.2Z" opacity="1" transform="matrix(1,0,0,1,0,0)" fill="white" class="wordmark-text-0" id="SvgjsPath1002"></path></svg></g></svg></g><g transform="matrix(1,0,0,1,98.88,55.43632132060627)"><svg viewBox="0 0 197.76 15.409997035280165" height="15.409997035280165" width="197.76"><g transform="matrix(1,0,0,1,0,0)"><svg width="197.76" viewBox="0.17 -38.01 494.03999999999996 38.5" height="15.409997035280165" data-palette-color="url(#a2fc6bbb-5533-4c74-a8ee-1c21526a6d7e)"></svg></g></svg></g></svg></g></svg></g><g transform="matrix(1,0,0,1,167.09318518160504,0)"><svg viewBox="0 0 61.33362963678992 73.4322089758763" height="73.4322089758763" width="61.33362963678992"><g><svg xmlns="http://www.w3.org/2000/svg" xmlns:xlink="http://www.w3.org/1999/xlink" version="1.1" x="0" y="0" viewBox="5.999164783092315 3 79.96483521690767 95.73857808746513" enable-background="new 0 0 100 100" xml:space="preserve" height="73.4322089758763" width="61.33362963678992" class="icon-icon-0" data-fill-palette-color="accent" id="SvgjsSvg1000"></svg></g></svg></g><g></g></svg></g></svg></g></svg></g><defs><mask></mask></defs></svg></g></mask><linearGradient x1="0" x2="1" y1="0.5" y2="0.5" id="2a923c71-2a8d-4f0b-b7ff-076222f846c5"><stop stop-color="#ffa62e" offset="0"></stop><stop stop-color="#f71b3d" offset="1"></stop></linearGradient><rect width="395.52" height="151.33788707323612" fill="url(#2a923c71-2a8d-4f0b-b7ff-076222f846c5)" mask="url(#534b12db-1997-482e-ae33-b3f786c238f8)" data-fill-palette-color="primary"></rect><mask id="6595dd34-04e6-4370-9792-aefcf8d7305e"><g id="SvgjsG1015"><svg viewBox="0 0 395.52 151.33788707323612" height="151.33788707323612" width="395.52"><g><svg viewBox="0 0 395.52 151.33788707323612" height="151.33788707323612" width="395.52"><g><svg viewBox="0 0 395.52 151.33788707323612" height="151.33788707323612" width="395.52"><g><svg viewBox="0 0 395.52 151.33788707323612" height="151.33788707323612" width="395.52"><g transform="matrix(1,0,0,1,0,80.4915687173497)"><svg viewBox="0 0 395.52 70.84631835588644" height="70.84631835588644" width="395.52"><g id="SvgjsG1014"><svg viewBox="0 0 395.52 70.84631835588644" height="70.84631835588644" width="395.52" id="SvgjsSvg1013"><g><svg viewBox="0 0 395.52 48.37696157913288" height="48.37696157913288" width="395.52"><g transform="matrix(1,0,0,1,0,0)"><svg width="395.52" viewBox="0.35 -33.6 283.66999999999996 34.7" height="48.37696157913288" data-palette-color="url(#2a923c71-2a8d-4f0b-b7ff-076222f846c5)"></svg></g></svg></g><g transform="matrix(1,0,0,1,98.88,55.43632132060627)"><svg viewBox="0 0 197.76 15.409997035280165" height="15.409997035280165" width="197.76"><g transform="matrix(1,0,0,1,0,0)"><svg width="197.76" viewBox="0.17 -38.01 494.03999999999996 38.5" height="15.409997035280165" data-palette-color="url(#a2fc6bbb-5533-4c74-a8ee-1c21526a6d7e)"><path d="M7.03-35.55L15.21-18.7 23.39-35.55 30.22-35.55 18.31-13.09 18.31 0 12.11 0 12.11-13.09 0.17-35.55 7.03-35.55ZM30.81-13.16L30.81-13.45Q30.81-17.33 32.35-20.45 33.88-23.56 36.67-25.23 39.45-26.9 43.06-26.9L43.06-26.9Q48.41-26.9 51.74-23.46 55.08-20.02 55.34-14.33L55.34-14.33 55.37-12.94Q55.37-9.03 53.87-5.96 52.37-2.88 49.57-1.2 46.77 0.49 43.11 0.49L43.11 0.49Q37.52 0.49 34.16-3.23 30.81-6.96 30.81-13.16L30.81-13.16ZM36.74-12.94L36.74-12.94Q36.74-8.86 38.43-6.56 40.11-4.25 43.11-4.25 46.12-4.25 47.79-6.59 49.46-8.94 49.46-13.45L49.46-13.45Q49.46-17.46 47.74-19.8 46.02-22.14 43.06-22.14L43.06-22.14Q40.16-22.14 38.45-19.84 36.74-17.53 36.74-12.94ZM76.53 0L76.39-2.59Q73.77 0.49 68.96 0.49L68.96 0.49Q64.67 0.49 62.46-2.03 60.25-4.54 60.25-9.3L60.25-9.3 60.25-26.42 66.18-26.42 66.18-9.38Q66.18-4.35 70.36-4.35L70.36-4.35Q74.68-4.35 76.19-7.45L76.19-7.45 76.19-26.42 82.12-26.42 82.12 0 76.53 0ZM102.02-26.56L101.99-21Q100.82-21.19 99.58-21.19L99.58-21.19Q95.5-21.19 94.08-18.07L94.08-18.07 94.08 0 88.15 0 88.15-26.42 93.82-26.42 93.96-23.46Q96.11-26.9 99.92-26.9L99.92-26.9Q101.19-26.9 102.02-26.56L102.02-26.56ZM137.34-9.16L137.34-9.16Q137.34-11.5 135.69-12.77 134.05-14.04 129.75-15.33 125.45-16.63 122.91-18.21L122.91-18.21Q118.05-21.26 118.05-26.17L118.05-26.17Q118.05-30.47 121.56-33.25 125.06-36.04 130.65-36.04L130.65-36.04Q134.36-36.04 137.27-34.67 140.17-33.3 141.83-30.77 143.49-28.25 143.49-25.17L143.49-25.17 137.34-25.17Q137.34-27.95 135.6-29.53 133.85-31.1 130.6-31.1L130.6-31.1Q127.58-31.1 125.9-29.81 124.23-28.52 124.23-26.2L124.23-26.2Q124.23-24.24 126.04-22.94 127.84-21.63 131.99-20.4 136.14-19.17 138.66-17.59 141.17-16.02 142.35-13.98 143.52-11.94 143.52-9.2L143.52-9.2Q143.52-4.76 140.11-2.14 136.71 0.49 130.87 0.49L130.87 0.49Q127.01 0.49 123.78-0.94 120.54-2.37 118.75-4.88 116.96-7.4 116.96-10.74L116.96-10.74 123.13-10.74Q123.13-7.71 125.13-6.05 127.14-4.39 130.87-4.39L130.87-4.39Q134.09-4.39 135.72-5.7 137.34-7.01 137.34-9.16ZM147.25-13.16L147.25-13.45Q147.25-17.33 148.79-20.45 150.33-23.56 153.11-25.23 155.89-26.9 159.51-26.9L159.51-26.9Q164.85-26.9 168.19-23.46 171.52-20.02 171.79-14.33L171.79-14.33 171.81-12.94Q171.81-9.03 170.31-5.96 168.81-2.88 166.01-1.2 163.22 0.49 159.56 0.49L159.56 0.49Q153.96 0.49 150.61-3.23 147.25-6.96 147.25-13.16L147.25-13.16ZM153.18-12.94L153.18-12.94Q153.18-8.86 154.87-6.56 156.55-4.25 159.56-4.25 162.56-4.25 164.23-6.59 165.9-8.94 165.9-13.45L165.9-13.45Q165.9-17.46 164.18-19.8 162.46-22.14 159.51-22.14L159.51-22.14Q156.6-22.14 154.89-19.84 153.18-17.53 153.18-12.94ZM192.98 0L192.83-2.59Q190.22 0.49 185.41 0.49L185.41 0.49Q181.11 0.49 178.9-2.03 176.69-4.54 176.69-9.3L176.69-9.3 176.69-26.42 182.62-26.42 182.62-9.38Q182.62-4.35 186.8-4.35L186.8-4.35Q191.12-4.35 192.63-7.45L192.63-7.45 192.63-26.42 198.57-26.42 198.57 0 192.98 0ZM204.52-26.42L210.11-26.42 210.28-23.36Q213.21-26.9 217.97-26.9L217.97-26.9Q226.23-26.9 226.37-17.46L226.37-17.46 226.37 0 220.44 0 220.44-17.11Q220.44-19.63 219.35-20.84 218.27-22.05 215.8-22.05L215.8-22.05Q212.21-22.05 210.45-18.8L210.45-18.8 210.45 0 204.52 0 204.52-26.42ZM231.3-13.4L231.3-13.4Q231.3-19.51 234.13-23.21 236.96-26.9 241.73-26.9L241.73-26.9Q245.92-26.9 248.51-23.97L248.51-23.97 248.51-37.5 254.45-37.5 254.45 0 249.07 0 248.78-2.73Q246.12 0.49 241.68 0.49L241.68 0.49Q237.04 0.49 234.17-3.25 231.3-6.98 231.3-13.4ZM237.23-12.89L237.23-12.89Q237.23-8.86 238.78-6.6 240.33-4.35 243.19-4.35L243.19-4.35Q246.83-4.35 248.51-7.59L248.51-7.59 248.51-18.87Q246.88-22.05 243.24-22.05L243.24-22.05Q240.36-22.05 238.8-19.76 237.23-17.48 237.23-12.89ZM293.84 0L286.72-13.7 279.83-13.7 279.83 0 273.65 0 273.65-35.55 286.15-35.55Q292.31-35.55 295.65-32.79 299-30.03 299-24.8L299-24.8Q299-21.24 297.27-18.84 295.55-16.43 292.48-15.14L292.48-15.14 300.46-0.32 300.46 0 293.84 0ZM279.83-30.57L279.83-18.65 286.18-18.65Q289.3-18.65 291.06-20.23 292.82-21.8 292.82-24.54L292.82-24.54Q292.82-27.39 291.2-28.96 289.57-30.52 286.35-30.57L286.35-30.57 279.83-30.57ZM315.91 0.49L315.91 0.49Q310.27 0.49 306.77-3.06 303.27-6.62 303.27-12.52L303.27-12.52 303.27-13.26Q303.27-17.21 304.79-20.32 306.32-23.44 309.08-25.17 311.84-26.9 315.23-26.9L315.23-26.9Q320.62-26.9 323.57-23.46 326.51-20.02 326.51-13.72L326.51-13.72 326.51-11.33 309.25-11.33Q309.52-8.06 311.43-6.15 313.35-4.25 316.25-4.25L316.25-4.25Q320.33-4.25 322.89-7.54L322.89-7.54 326.09-4.49Q324.51-2.12 321.86-0.82 319.21 0.49 315.91 0.49ZM315.2-22.14L315.2-22.14Q312.76-22.14 311.26-20.43 309.76-18.73 309.35-15.67L309.35-15.67 320.65-15.67 320.65-16.11Q320.45-19.09 319.06-20.62 317.67-22.14 315.2-22.14ZM339.13 0L333.2 0 333.2-22.02 329.17-22.02 329.17-26.42 333.2-26.42 333.2-28.83Q333.2-33.23 335.64-35.62 338.08-38.01 342.47-38.01L342.47-38.01Q344.03-38.01 345.79-37.57L345.79-37.57 345.65-32.93Q344.67-33.13 343.38-33.13L343.38-33.13Q339.13-33.13 339.13-28.76L339.13-28.76 339.13-26.42 344.5-26.42 344.5-22.02 339.13-22.02 339.13 0ZM355.14-37.5L355.14 0 349.21 0 349.21-37.5 355.14-37.5ZM373.23 0.49L373.23 0.49Q367.59 0.49 364.09-3.06 360.58-6.62 360.58-12.52L360.58-12.52 360.58-13.26Q360.58-17.21 362.11-20.32 363.63-23.44 366.39-25.17 369.15-26.9 372.55-26.9L372.55-26.9Q377.94-26.9 380.88-23.46 383.82-20.02 383.82-13.72L383.82-13.72 383.82-11.33 366.56-11.33Q366.83-8.06 368.75-6.15 370.67-4.25 373.57-4.25L373.57-4.25Q377.65-4.25 380.21-7.54L380.21-7.54 383.41-4.49Q381.82-2.12 379.17-0.82 376.53 0.49 373.23 0.49ZM372.52-22.14L372.52-22.14Q370.08-22.14 368.58-20.43 367.08-18.73 366.66-15.67L366.66-15.67 377.97-15.67 377.97-16.11Q377.77-19.09 376.38-20.62 374.99-22.14 372.52-22.14ZM399.28-4.25L399.28-4.25Q401.5-4.25 402.96-5.54 404.43-6.84 404.53-8.74L404.53-8.74 410.12-8.74Q410.02-6.27 408.58-4.14 407.14-2 404.67-0.76 402.21 0.49 399.35 0.49L399.35 0.49Q393.81 0.49 390.56-3.1 387.31-6.69 387.31-13.01L387.31-13.01 387.31-13.62Q387.31-19.65 390.54-23.28 393.76-26.9 399.33-26.9L399.33-26.9Q404.04-26.9 407-24.16 409.97-21.41 410.12-16.94L410.12-16.94 404.53-16.94Q404.43-19.21 402.98-20.68 401.52-22.14 399.28-22.14L399.28-22.14Q396.4-22.14 394.83-20.06 393.27-17.97 393.25-13.72L393.25-13.72 393.25-12.77Q393.25-8.47 394.8-6.36 396.35-4.25 399.28-4.25ZM416.1-32.84L422.03-32.84 422.03-26.42 426.69-26.42 426.69-22.02 422.03-22.02 422.03-7.28Q422.03-5.76 422.63-5.09 423.22-4.42 424.76-4.42L424.76-4.42Q425.79-4.42 426.84-4.66L426.84-4.66 426.84-0.07Q424.81 0.49 422.93 0.49L422.93 0.49Q416.1 0.49 416.1-7.06L416.1-7.06 416.1-22.02 411.75-22.02 411.75-26.42 416.1-26.42 416.1-32.84ZM437.53-26.42L437.53 0 431.6 0 431.6-26.42 437.53-26.42ZM431.23-33.28L431.23-33.28Q431.23-34.64 432.1-35.55 432.96-36.45 434.57-36.45 436.19-36.45 437.06-35.55 437.94-34.64 437.94-33.28L437.94-33.28Q437.94-31.93 437.06-31.04 436.19-30.15 434.57-30.15 432.96-30.15 432.1-31.04 431.23-31.93 431.23-33.28ZM442.87-13.16L442.87-13.45Q442.87-17.33 444.41-20.45 445.95-23.56 448.73-25.23 451.52-26.9 455.13-26.9L455.13-26.9Q460.47-26.9 463.81-23.46 467.14-20.02 467.41-14.33L467.41-14.33 467.43-12.94Q467.43-9.03 465.93-5.96 464.43-2.88 461.63-1.2 458.84 0.49 455.18 0.49L455.18 0.49Q449.59 0.49 446.23-3.23 442.87-6.96 442.87-13.16L442.87-13.16ZM448.81-12.94L448.81-12.94Q448.81-8.86 450.49-6.56 452.17-4.25 455.18-4.25 458.18-4.25 459.85-6.59 461.52-8.94 461.52-13.45L461.52-13.45Q461.52-17.46 459.8-19.8 458.08-22.14 455.13-22.14L455.13-22.14Q452.22-22.14 450.51-19.84 448.81-17.53 448.81-12.94ZM472.36-26.42L477.95-26.42 478.12-23.36Q481.05-26.9 485.81-26.9L485.81-26.9Q494.07-26.9 494.21-17.46L494.21-17.46 494.21 0 488.28 0 488.28-17.11Q488.28-19.63 487.19-20.84 486.11-22.05 483.64-22.05L483.64-22.05Q480.05-22.05 478.29-18.8L478.29-18.8 478.29 0 472.36 0 472.36-26.42Z" opacity="1" transform="matrix(1,0,0,1,0,0)" fill="white" class="slogan-text-1" id="SvgjsPath1012"></path></svg></g></svg></g></svg></g></svg></g><g transform="matrix(1,0,0,1,167.09318518160504,0)"><svg viewBox="0 0 61.33362963678992 73.4322089758763" height="73.4322089758763" width="61.33362963678992"><g><svg xmlns="http://www.w3.org/2000/svg" xmlns:xlink="http://www.w3.org/1999/xlink" version="1.1" x="0" y="0" viewBox="5.999164783092315 3 79.96483521690767 95.73857808746513" enable-background="new 0 0 100 100" xml:space="preserve" height="73.4322089758763" width="61.33362963678992" class="icon-icon-0" data-fill-palette-color="accent" id="SvgjsSvg1011"></svg></g></svg></g><g></g></svg></g></svg></g></svg></g><defs><mask></mask></defs><mask><g id="SvgjsG1010"><svg viewBox="0 0 395.52 151.33788707323612" height="151.33788707323612" width="395.52"><g><svg viewBox="0 0 395.52 151.33788707323612" height="151.33788707323612" width="395.52"><g><svg viewBox="0 0 395.52 151.33788707323612" height="151.33788707323612" width="395.52"><g><svg viewBox="0 0 395.52 151.33788707323612" height="151.33788707323612" width="395.52"><g transform="matrix(1,0,0,1,0,80.4915687173497)"><svg viewBox="0 0 395.52 70.84631835588644" height="70.84631835588644" width="395.52"><g id="SvgjsG1009"><svg viewBox="0 0 395.52 70.84631835588644" height="70.84631835588644" width="395.52" id="SvgjsSvg1008"><g><svg viewBox="0 0 395.52 48.37696157913288" height="48.37696157913288" width="395.52"><g transform="matrix(1,0,0,1,0,0)"><svg width="395.52" viewBox="0.35 -33.6 283.66999999999996 34.7" height="48.37696157913288" data-palette-color="url(#2a923c71-2a8d-4f0b-b7ff-076222f846c5)"></svg></g></svg></g><g transform="matrix(1,0,0,1,98.88,55.43632132060627)"><svg viewBox="0 0 197.76 15.409997035280165" height="15.409997035280165" width="197.76"><g transform="matrix(1,0,0,1,0,0)"><svg width="197.76" viewBox="0.17 -38.01 494.03999999999996 38.5" height="15.409997035280165" data-palette-color="url(#a2fc6bbb-5533-4c74-a8ee-1c21526a6d7e)"></svg></g></svg></g></svg></g></svg></g><g transform="matrix(1,0,0,1,167.09318518160504,0)"><svg viewBox="0 0 61.33362963678992 73.4322089758763" height="73.4322089758763" width="61.33362963678992"><g><svg xmlns="http://www.w3.org/2000/svg" xmlns:xlink="http://www.w3.org/1999/xlink" version="1.1" x="0" y="0" viewBox="5.999164783092315 3 79.96483521690767 95.73857808746513" enable-background="new 0 0 100 100" xml:space="preserve" height="73.4322089758763" width="61.33362963678992" class="icon-icon-0" data-fill-palette-color="accent" id="SvgjsSvg1006"></svg></g></svg></g><g></g></svg></g></svg></g></svg></g><defs><mask></mask></defs></svg></g></mask></svg></g></mask><linearGradient x1="0" x2="1" y1="0.5" y2="0.5" id="a2fc6bbb-5533-4c74-a8ee-1c21526a6d7e"><stop stop-color="#ffa62e" offset="0"></stop><stop stop-color="#f71b3d" offset="1"></stop></linearGradient><rect width="395.52" height="151.33788707323612" fill="url(#a2fc6bbb-5533-4c74-a8ee-1c21526a6d7e)" mask="url(#6595dd34-04e6-4370-9792-aefcf8d7305e)" data-fill-palette-color="secondary"></rect><mask id="b9cde6fe-6b12-452e-b162-675a2e218796"><g id="SvgjsG1033"><svg viewBox="0 0 395.52 151.33788707323612" height="151.33788707323612" width="395.52"><g><svg viewBox="0 0 395.52 151.33788707323612" height="151.33788707323612" width="395.52"><g><svg viewBox="0 0 395.52 151.33788707323612" height="151.33788707323612" width="395.52"><g><svg viewBox="0 0 395.52 151.33788707323612" height="151.33788707323612" width="395.52"><g transform="matrix(1,0,0,1,0,80.4915687173497)"><svg viewBox="0 0 395.52 70.84631835588644" height="70.84631835588644" width="395.52"><g id="SvgjsG1032"><svg viewBox="0 0 395.52 70.84631835588644" height="70.84631835588644" width="395.52" id="SvgjsSvg1031"><g><svg viewBox="0 0 395.52 48.37696157913288" height="48.37696157913288" width="395.52"><g transform="matrix(1,0,0,1,0,0)"><svg width="395.52" viewBox="0.35 -33.6 283.66999999999996 34.7" height="48.37696157913288" data-palette-color="url(#2a923c71-2a8d-4f0b-b7ff-076222f846c5)"></svg></g></svg></g><g transform="matrix(1,0,0,1,98.88,55.43632132060627)"><svg viewBox="0 0 197.76 15.409997035280165" height="15.409997035280165" width="197.76"><g transform="matrix(1,0,0,1,0,0)"><svg width="197.76" viewBox="0.17 -38.01 494.03999999999996 38.5" height="15.409997035280165" data-palette-color="url(#a2fc6bbb-5533-4c74-a8ee-1c21526a6d7e)"></svg></g></svg></g></svg></g></svg></g><g transform="matrix(1,0,0,1,167.09318518160504,0)"><svg viewBox="0 0 61.33362963678992 73.4322089758763" height="73.4322089758763" width="61.33362963678992"><g><svg xmlns="http://www.w3.org/2000/svg" xmlns:xlink="http://www.w3.org/1999/xlink" version="1.1" x="0" y="0" viewBox="5.999164783092315 3 79.96483521690767 95.73857808746513" enable-background="new 0 0 100 100" xml:space="preserve" height="73.4322089758763" width="61.33362963678992" class="icon-icon-0" data-fill-palette-color="accent" id="SvgjsSvg1030"><g fill="white"><path fill="white" d="M26.66 13.266v8.338 1.6 5.134 9.941 38.55c-3.223-0.916-7.149-0.712-10.972 0.888-7.287 3.048-11.342 9.901-9.047 15.301 2.287 5.407 10.054 7.317 17.34 4.271 6.094-2.547 9.865-7.749 9.617-12.548h0.068V37.183l45.044-7.065v35.386c-3.174-0.827-7.01-0.579-10.729 0.976-7.282 3.047-11.338 9.901-9.047 15.305 2.292 5.406 10.059 7.318 17.344 4.268 5.815-2.433 9.502-7.283 9.618-11.894h0.068v-45.18V18.075v-4.17-2.884V3L26.66 13.266zM78.711 19.331L33.667 27.13v-5.022l45.044-7.063V19.331z"></path></g></svg></g></svg></g><g></g></svg></g></svg></g></svg></g><defs><mask></mask></defs><mask><g id="SvgjsG1029"><svg viewBox="0 0 395.52 151.33788707323612" height="151.33788707323612" width="395.52"><g><svg viewBox="0 0 395.52 151.33788707323612" height="151.33788707323612" width="395.52"><g><svg viewBox="0 0 395.52 151.33788707323612" height="151.33788707323612" width="395.52"><g><svg viewBox="0 0 395.52 151.33788707323612" height="151.33788707323612" width="395.52"><g transform="matrix(1,0,0,1,0,80.4915687173497)"><svg viewBox="0 0 395.52 70.84631835588644" height="70.84631835588644" width="395.52"><g id="SvgjsG1028"><svg viewBox="0 0 395.52 70.84631835588644" height="70.84631835588644" width="395.52" id="SvgjsSvg1027"><g><svg viewBox="0 0 395.52 48.37696157913288" height="48.37696157913288" width="395.52"><g transform="matrix(1,0,0,1,0,0)"><svg width="395.52" viewBox="0.35 -33.6 283.66999999999996 34.7" height="48.37696157913288" data-palette-color="url(#2a923c71-2a8d-4f0b-b7ff-076222f846c5)"></svg></g></svg></g><g transform="matrix(1,0,0,1,98.88,55.43632132060627)"><svg viewBox="0 0 197.76 15.409997035280165" height="15.409997035280165" width="197.76"><g transform="matrix(1,0,0,1,0,0)"><svg width="197.76" viewBox="0.17 -38.01 494.03999999999996 38.5" height="15.409997035280165" data-palette-color="url(#a2fc6bbb-5533-4c74-a8ee-1c21526a6d7e)"></svg></g></svg></g></svg></g></svg></g><g transform="matrix(1,0,0,1,167.09318518160504,0)"><svg viewBox="0 0 61.33362963678992 73.4322089758763" height="73.4322089758763" width="61.33362963678992"><g><svg xmlns="http://www.w3.org/2000/svg" xmlns:xlink="http://www.w3.org/1999/xlink" version="1.1" x="0" y="0" viewBox="5.999164783092315 3 79.96483521690767 95.73857808746513" enable-background="new 0 0 100 100" xml:space="preserve" height="73.4322089758763" width="61.33362963678992" class="icon-icon-0" data-fill-palette-color="accent" id="SvgjsSvg1025"></svg></g></svg></g><g></g></svg></g></svg></g></svg></g><defs><mask></mask></defs></svg></g></mask><mask><g id="SvgjsG1024"><svg viewBox="0 0 395.52 151.33788707323612" height="151.33788707323612" width="395.52"><g><svg viewBox="0 0 395.52 151.33788707323612" height="151.33788707323612" width="395.52"><g><svg viewBox="0 0 395.52 151.33788707323612" height="151.33788707323612" width="395.52"><g><svg viewBox="0 0 395.52 151.33788707323612" height="151.33788707323612" width="395.52"><g transform="matrix(1,0,0,1,0,80.4915687173497)"><svg viewBox="0 0 395.52 70.84631835588644" height="70.84631835588644" width="395.52"><g id="SvgjsG1023"><svg viewBox="0 0 395.52 70.84631835588644" height="70.84631835588644" width="395.52" id="SvgjsSvg1022"><g><svg viewBox="0 0 395.52 48.37696157913288" height="48.37696157913288" width="395.52"><g transform="matrix(1,0,0,1,0,0)"><svg width="395.52" viewBox="0.35 -33.6 283.66999999999996 34.7" height="48.37696157913288" data-palette-color="url(#2a923c71-2a8d-4f0b-b7ff-076222f846c5)"></svg></g></svg></g><g transform="matrix(1,0,0,1,98.88,55.43632132060627)"><svg viewBox="0 0 197.76 15.409997035280165" height="15.409997035280165" width="197.76"><g transform="matrix(1,0,0,1,0,0)"><svg width="197.76" viewBox="0.17 -38.01 494.03999999999996 38.5" height="15.409997035280165" data-palette-color="url(#a2fc6bbb-5533-4c74-a8ee-1c21526a6d7e)"></svg></g></svg></g></svg></g></svg></g><g transform="matrix(1,0,0,1,167.09318518160504,0)"><svg viewBox="0 0 61.33362963678992 73.4322089758763" height="73.4322089758763" width="61.33362963678992"><g><svg xmlns="http://www.w3.org/2000/svg" xmlns:xlink="http://www.w3.org/1999/xlink" version="1.1" x="0" y="0" viewBox="5.999164783092315 3 79.96483521690767 95.73857808746513" enable-background="new 0 0 100 100" xml:space="preserve" height="73.4322089758763" width="61.33362963678992" class="icon-icon-0" data-fill-palette-color="accent" id="SvgjsSvg1020"></svg></g></svg></g><g></g></svg></g></svg></g></svg></g><defs><mask></mask></defs><mask><g id="SvgjsG1019"><svg viewBox="0 0 395.52 151.33788707323612" height="151.33788707323612" width="395.52"><g><svg viewBox="0 0 395.52 151.33788707323612" height="151.33788707323612" width="395.52"><g><svg viewBox="0 0 395.52 151.33788707323612" height="151.33788707323612" width="395.52"><g><svg viewBox="0 0 395.52 151.33788707323612" height="151.33788707323612" width="395.52"><g transform="matrix(1,0,0,1,0,80.4915687173497)"><svg viewBox="0 0 395.52 70.84631835588644" height="70.84631835588644" width="395.52"><g id="SvgjsG1018"><svg viewBox="0 0 395.52 70.84631835588644" height="70.84631835588644" width="395.52" id="SvgjsSvg1017"><g><svg viewBox="0 0 395.52 48.37696157913288" height="48.37696157913288" width="395.52"><g transform="matrix(1,0,0,1,0,0)"><svg width="395.52" viewBox="0.35 -33.6 283.66999999999996 34.7" height="48.37696157913288" data-palette-color="url(#2a923c71-2a8d-4f0b-b7ff-076222f846c5)"></svg></g></svg></g><g transform="matrix(1,0,0,1,98.88,55.43632132060627)"><svg viewBox="0 0 197.76 15.409997035280165" height="15.409997035280165" width="197.76"><g transform="matrix(1,0,0,1,0,0)"><svg width="197.76" viewBox="0.17 -38.01 494.03999999999996 38.5" height="15.409997035280165" data-palette-color="url(#a2fc6bbb-5533-4c74-a8ee-1c21526a6d7e)"></svg></g></svg></g></svg></g></svg></g><g transform="matrix(1,0,0,1,167.09318518160504,0)"><svg viewBox="0 0 61.33362963678992 73.4322089758763" height="73.4322089758763" width="61.33362963678992"><g><svg xmlns="http://www.w3.org/2000/svg" xmlns:xlink="http://www.w3.org/1999/xlink" version="1.1" x="0" y="0" viewBox="5.999164783092315 3 79.96483521690767 95.73857808746513" enable-background="new 0 0 100 100" xml:space="preserve" height="73.4322089758763" width="61.33362963678992" class="icon-icon-0" data-fill-palette-color="accent" id="SvgjsSvg1016"></svg></g></svg></g><g></g></svg></g></svg></g></svg></g><defs><mask></mask></defs></svg></g></mask></svg></g></mask></svg></g></mask><linearGradient x1="0" x2="1" y1="0.5" y2="0.5" id="f3aff7d0-b54d-4ca1-80f0-8d1af93928db"><stop stop-color="#ffa62e" offset="0"></stop><stop stop-color="#f71b3d" offset="1"></stop></linearGradient><rect width="395.52" height="151.33788707323612" fill="url(#f3aff7d0-b54d-4ca1-80f0-8d1af93928db)" mask="url(#b9cde6fe-6b12-452e-b162-675a2e218796)" data-fill-palette-color="accent"></rect></svg><rect width="395.52" height="151.33788707323612" fill="none" stroke="none" visibility="hidden"></rect></g></svg></g></svg>